<svg width="38" height="38" viewBox="0 0 38 38" fill="none" xmlns="http://www.w3.org/2000/svg">
<path d="M19.1707 0.37197C15.4655 0.386604 11.8476 1.49882 8.77372 3.56772C5.7 5.63662 3.30823 8.57077 1.90024 11.997C0.492256 15.425 0.131341 19.1933 0.863231 22.8244C1.59494 26.4573 3.38634 29.7903 6.01153 32.4061C8.63671 35.0201 11.9777 36.8 15.6128 37.5171C19.2479 38.2342 23.0142 37.8592 26.436 36.4378C29.8579 35.0165 32.782 32.6128 34.839 29.5305C36.896 26.45 37.9939 22.8281 37.9939 19.122C37.9915 16.6543 37.5024 14.2104 36.5548 11.933C35.6071 9.65369 34.2194 7.58477 32.471 5.84331C30.7226 4.10184 28.648 2.72257 26.3658 1.78233C24.0834 0.843914 21.6384 0.364653 19.1707 0.37197ZM28.8476 20.9512H21.0183V28.7622C21.0183 29.247 20.8255 29.7134 20.4825 30.0555C20.1395 30.3994 19.6741 30.5915 19.189 30.5915C18.7039 30.5915 18.2385 30.3994 17.8955 30.0555C17.5526 29.7134 17.3598 29.247 17.3598 28.7622V20.9512H9.53049C9.04537 20.9512 8.58 20.7592 8.23701 20.4153C7.89402 20.0732 7.70122 19.6067 7.70122 19.122C7.70122 18.6372 7.89402 18.1726 8.23701 17.8287C8.58 17.4848 9.04537 17.2927 9.53049 17.2927H17.3598V9.39025C17.3598 8.90549 17.5526 8.43903 17.8955 8.09696C18.2385 7.75305 18.7039 7.56098 19.189 7.56098C19.6741 7.56098 20.1395 7.75305 20.4825 8.09696C20.8255 8.43903 21.0183 8.90549 21.0183 9.39025V17.2195H28.8476C29.3327 17.2195 29.7981 17.4116 30.141 17.7555C30.484 18.0994 30.6768 18.564 30.6768 19.0488C30.6768 19.5335 30.484 20 30.141 20.3421C29.7981 20.686 29.3327 20.8781 28.8476 20.8781V20.9512Z" fill="#6262FF" fill-opacity="0.5"/>
</svg>
