<svg width="38" height="35" viewBox="0 0 38 35" fill="none" xmlns="http://www.w3.org/2000/svg">
<path d="M26.5549 0.201233H11.0061C8.21793 0.206721 5.54537 1.31528 3.57378 3.28723C1.60238 5.25918 0.492564 7.93172 0.487808 10.7195V23.5244C0.492564 26.3122 1.60238 28.9847 3.57378 30.9567C5.54537 32.9286 8.21793 34.0372 11.0061 34.0427H26.5549C29.3431 34.0372 32.0156 32.9286 33.9872 30.9567C35.9586 28.9847 37.0684 26.3122 37.0732 23.5244V10.7195C37.0684 7.93172 35.9586 5.25918 33.9872 3.28723C32.0156 1.31528 29.3431 0.206721 26.5549 0.201233ZM11.4634 6.32929C12.6327 6.32929 13.7538 6.79392 14.5807 7.62074C15.4075 8.44757 15.872 9.56893 15.872 10.7378C15.872 11.9067 15.4075 13.028 14.5807 13.8549C13.7538 14.6817 12.6327 15.1464 11.4634 15.1464C10.8845 15.1446 10.3115 15.0293 9.77701 14.8079C9.24268 14.5847 8.75738 14.2592 8.34891 13.8494C7.52373 13.0207 7.06147 11.8976 7.06403 10.7287C7.06641 9.55978 7.53324 8.43843 8.36171 7.61343C9.19019 6.78843 10.3124 6.32746 11.4817 6.32929H11.4634ZM34.3293 18.5488L30.3416 15.4573C29.1929 14.6561 27.799 14.2866 26.4043 14.4092C25.0097 14.5335 23.7032 15.1445 22.7134 16.1341L18.4514 20.3964C17.5589 21.2598 16.3999 21.7957 15.1638 21.9146C13.928 22.0335 12.6877 21.7317 11.6463 21.0549C11.1387 20.7201 10.5331 20.5647 9.92683 20.6159C9.31805 20.6799 8.74988 20.9506 8.31707 21.3841L3.87195 26.5793C3.39177 25.4799 3.17263 24.2836 3.23171 23.0854L6.30488 19.5183C7.19116 18.622 8.35842 18.0604 9.61092 17.9232C10.8634 17.786 12.1247 18.0841 13.1831 18.7683C13.6891 19.1104 14.299 19.2659 14.9072 19.2055C15.5152 19.1451 16.083 18.8744 16.5122 18.439L20.7744 14.1951C22.2329 12.7409 24.1584 11.85 26.2106 11.6799C28.2627 11.5098 30.3091 12.0696 31.9878 13.2622L34.3293 15.0915V18.5488Z" fill="#6262FF" fill-opacity="0.5"/>
</svg>
