<svg width="56" height="56" viewBox="0 0 56 56" fill="none" xmlns="http://www.w3.org/2000/svg">
<path d="M55.3658 28.1219C55.3658 12.9678 43.081 0.682922 27.9268 0.682922C12.7727 0.682922 0.487793 12.9678 0.487793 28.1219C0.487793 43.2761 12.7727 55.561 27.9268 55.561C43.081 55.561 55.3658 43.2761 55.3658 28.1219Z" fill="#6262FF" fill-opacity="0.7"/>
<path d="M27.9268 33.6097C26.403 33.6097 25.1061 33.0756 24.0396 32.0091C22.9732 30.9427 22.439 29.6457 22.439 28.1219V17.1463C22.439 15.6225 22.9732 14.3256 24.0396 13.2591C25.1061 12.1927 26.403 11.6585 27.9268 11.6585C29.4506 11.6585 30.7476 12.1927 31.814 13.2591C32.8805 14.3256 33.4146 15.6225 33.4146 17.1463V28.1219C33.4146 29.6457 32.8805 30.9427 31.814 32.0091C30.7476 33.0756 29.4506 33.6097 27.9268 33.6097ZM26.0976 46.4146V40.7896C22.9274 40.3634 20.3043 38.9457 18.2317 36.5366C16.1592 34.1274 15.1219 31.3231 15.1219 28.1219H18.7805C18.7805 30.6518 19.6732 32.8103 21.4567 34.5939C23.2403 36.3774 25.3969 37.2701 27.9268 37.2683C30.4567 37.2683 32.6152 36.3756 34.3988 34.592C36.1823 32.8085 37.075 30.6518 37.0732 28.1219H40.7317C40.7317 31.3231 39.6945 34.1274 37.6219 36.5366C35.5494 38.9457 32.9262 40.3634 29.7561 40.7896V46.4146H26.0976Z" fill="white"/>
</svg>
