<svg width="36" height="36" viewBox="0 0 36 36" fill="none" xmlns="http://www.w3.org/2000/svg">
<path d="M35.4024 18.0976C35.4024 8.49993 27.622 0.719513 18.0244 0.719513C8.42675 0.719513 0.646332 8.49993 0.646332 18.0976C0.646332 27.6952 8.42675 35.4756 18.0244 35.4756C27.622 35.4756 35.4024 27.6952 35.4024 18.0976Z" fill="#E1E1E1"/>
<path d="M18.0244 21.4945C17.1536 21.4945 16.4128 21.189 15.8036 20.5799C15.1927 19.9707 14.889 19.2299 14.889 18.3592V12.0866C14.889 11.2159 15.1927 10.475 15.8036 9.86587C16.4128 9.25672 17.1536 8.95123 18.0244 8.95123C18.8951 8.95123 19.636 9.25672 20.2451 9.86587C20.8561 10.475 21.1598 11.2159 21.1598 12.0866V18.3592C21.1598 19.2299 20.8561 19.9707 20.2451 20.5799C19.636 21.189 18.8951 21.4945 18.0244 21.4945ZM16.9799 28.8116V25.5976C15.1671 25.3543 13.6689 24.5439 12.4835 23.1665C11.3 21.7909 10.7073 20.1884 10.7073 18.3592H12.7982C12.7982 19.8043 13.3085 21.0372 14.3274 22.0579C15.3463 23.0768 16.5793 23.5854 18.0244 23.5854C19.4695 23.5854 20.7024 23.075 21.7232 22.0561C22.7421 21.0372 23.2524 19.8043 23.2506 18.3592H25.3415C25.3415 20.1884 24.7488 21.7909 23.5652 23.1665C22.3799 24.5439 20.8817 25.3543 19.0689 25.5976V28.8116H16.9799Z" fill="#6262FF"/>
<path d="M35.4024 18.0976C35.4024 8.49993 27.622 0.719513 18.0244 0.719513C8.42675 0.719513 0.646332 8.49993 0.646332 18.0976C0.646332 27.6952 8.42675 35.4756 18.0244 35.4756C27.622 35.4756 35.4024 27.6952 35.4024 18.0976Z" stroke="white"/>
</svg>
