<svg width="28" height="29" viewBox="0 0 28 29" fill="none" xmlns="http://www.w3.org/2000/svg">
<mask id="mask0_1_12" style="mask-type:luminance" maskUnits="userSpaceOnUse" x="0" y="0" width="28" height="29">
<path d="M27.878 14.6707C27.878 7.09367 21.7356 0.951233 14.1585 0.951233C6.58146 0.951233 0.439026 7.09367 0.439026 14.6707C0.439026 22.2478 6.58146 28.3903 14.1585 28.3903C21.7356 28.3903 27.878 22.2478 27.878 14.6707Z" fill="white"/>
</mask>
<g mask="url(#mask0_1_12)">
<path d="M27.878 14.6707C27.878 7.09367 21.7356 0.951233 14.1585 0.951233C6.58146 0.951233 0.439026 7.09367 0.439026 14.6707C0.439026 22.2478 6.58146 28.3903 14.1585 28.3903C21.7356 28.3903 27.878 22.2478 27.878 14.6707Z" fill="white"/>
<path d="M11.818 17.9135V17.5394C11.818 16.6818 11.8857 15.9986 12.0207 15.4891C12.1559 14.9799 12.356 14.572 12.6209 14.2654C12.8859 13.9537 13.2108 13.6729 13.5953 13.4235C13.9279 13.2053 14.2242 12.9948 14.484 12.7921C14.749 12.5894 14.9568 12.3737 15.1076 12.1451C15.2634 11.9164 15.3415 11.6566 15.3415 11.3656C15.3415 11.1057 15.2792 10.877 15.1544 10.6796C15.0296 10.4821 14.8608 10.3288 14.6477 10.2198C14.4346 10.1105 14.1982 10.056 13.9383 10.056C13.6577 10.056 13.3979 10.121 13.1589 10.2509C12.9249 10.3807 12.7352 10.56 12.5898 10.7887C12.4495 11.0173 12.3792 11.2824 12.3792 11.5838H8.38812C8.39855 10.4405 8.65849 9.51293 9.16775 8.80098C9.67702 8.08372 10.3526 7.5589 11.1944 7.22634C12.0362 6.88848 12.9613 6.71964 13.9696 6.71964C15.0816 6.71964 16.0742 6.88335 16.9473 7.21079C17.8204 7.53293 18.5089 8.02152 19.0131 8.67622C19.517 9.32579 19.7691 10.1391 19.7691 11.1161C19.7691 11.745 19.6601 12.2984 19.4417 12.7765C19.2287 13.2494 18.9298 13.6677 18.5453 14.0316C18.1659 14.3901 17.7216 14.7176 17.2123 15.0137C16.8381 15.232 16.5238 15.458 16.2692 15.6918C16.0145 15.9205 15.8221 16.183 15.6922 16.4791C15.5623 16.7702 15.4974 17.1236 15.4974 17.5394V17.9135H11.818ZM13.7201 23.152C13.1173 23.152 12.6002 22.9414 12.1689 22.5205C11.7426 22.0943 11.5323 21.5773 11.5374 20.9693C11.5323 20.3768 11.7426 19.8701 12.1689 19.4491C12.6002 19.0282 13.1173 18.8177 13.7201 18.8177C14.2917 18.8177 14.7959 19.0282 15.2323 19.4491C15.6741 19.8701 15.8975 20.3768 15.9028 20.9693C15.8975 21.3746 15.791 21.7436 15.5832 22.0762C15.3805 22.4036 15.1154 22.6659 14.788 22.8635C14.4606 23.0557 14.1046 23.152 13.7201 23.152Z" fill="#6262FF"/>
</g>
</svg>
