<svg width="32" height="30" viewBox="0 0 32 30" fill="none" xmlns="http://www.w3.org/2000/svg">
<path d="M31.3445 14.9079C31.3463 15.753 31.103 16.578 30.642 17.286C30.1957 18.0012 29.55 18.5683 28.7835 18.9177L7.21279 29.3756C6.61096 29.6774 5.94874 29.8329 5.27739 29.8329C4.99386 29.8329 4.71401 29.8018 4.43779 29.7414C3.49572 29.564 2.6396 29.0811 1.99936 28.3695C1.35363 27.6561 0.958499 26.7542 0.870694 25.7975C0.782889 24.8408 1.0079 23.8823 1.51095 23.0646L6.75547 15.7768C6.8762 15.4878 6.93841 15.1768 6.93841 14.8622C6.93841 14.5238 6.85975 14.1908 6.70975 13.8872L1.86214 7.02743C1.36092 6.19511 1.15242 5.21829 1.26766 4.25243C1.37193 3.32682 1.76706 2.45609 2.39633 1.76828C3.02743 1.08048 3.85972 0.612182 4.77436 0.427426C5.69265 0.246328 6.64569 0.352399 7.50179 0.731057L28.8438 10.8999C29.5938 11.2676 30.225 11.8384 30.6676 12.5463C31.1085 13.2543 31.3426 14.0737 31.3445 14.9079Z" fill="#6262FF"/>
</svg>
